# xmcd
#
# Track frame offsets:
#	150
#	18135
#	38735
#	57065
#	74721
#	95617
#	120108
#	146619
#	166108
#	184833
#	210596
#	227823
#	238645
#	258840
#	269396
#
# Disc length: 3953 seconds
#
# Revision: 0
# Processed by: cddbd v1.5.2PL0 Copyright (c) Steve Scherf et al.
# Submitted via: EasyCDDAExtractor 16.0.1.1
#
DISCID=c60f6f0f
DTITLE=Dixie Chicks - The Essential Dixie Chicks [CD1]
DYEAR=1900
DGENRE=Country
TTITLE0=Not Ready To Make Nice
TTITLE1=The Long Way Around
TTITLE2=Easy Silence
TTITLE3=Lubbock or Leave It
TTITLE4=Bitter End
TTITLE5=Silent House
TTITLE6=Lullaby
TTITLE7=Everybody Knows
TTITLE8=Long Time Gone
TTITLE9=Travelin' Soldier
TTITLE10=Landslide
TTITLE11=Lil' Jack Slade
TTITLE12=Truth No  2
TTITLE13=White Trash Wedding
TTITLE14=Top of the World
EXTD=
EXTT0=
EXTT1=
EXTT2=
EXTT3=
EXTT4=
EXTT5=
EXTT6=
EXTT7=
EXTT8=
EXTT9=
EXTT10=
EXTT11=
EXTT12=
EXTT13=
EXTT14=
PLAYORDER=
